Coordinates
version=1
nRows=11
nColumns=33
inDegrees=yes

Units are S.I. units (second, meters, Newtons, ...)
Angles are in degrees.

endheader
time	ground_thorax_rot_x	ground_thorax_rot_y	ground_thorax_rot_z	ground_thorax_tx	ground_thorax_ty	ground_thorax_tz	clav_prot_r	clav_elev_r	scapula_abduction_r	scapula_elevation_r	scapula_upward_rot_r	scapula_winging_r	shoulder_elv_r	plane_of_elev_r	axial_rot_r	elbow_flexion_r	pro_sup_r	wrist_flex_r	wrist_dev_r	clav_prot_l	clav_elev_l	scapula_abduction_l	scapula_elevation_l	scapula_upward_rot_l	scapula_winging_l	shoulder_elv_l	plane_of_elev_l	axial_rot_l	elbow_flexion_l	pro_sup_l	wrist_flex_l	wrist_dev_l	
5.7000	29.497926	27.915228	35.608875	-61.504649	789.140299	-36.528175	12.126518	34.736296	23.983507	45.000000	-45.000000	-2962.540285	-4967.232428	22.831193	180.000000	1085.828205	186.604634	13.280051	15.019859	-10.275170	-45.000000	-36.680177	45.000000	-45.000000	-976.854897	-1171.272291	137.228973	-139.398740	1789.357225	40.384146	12.582042	-15.500036	
5.7100	29.625091	27.700658	35.358752	-64.018902	790.881368	-36.771538	12.125750	34.712682	23.992445	45.000000	-45.000000	-2962.719180	-4967.153764	22.869889	180.000000	1085.814979	186.431906	13.294774	15.045788	-10.166816	-45.000000	-36.799678	45.000000	-45.000000	-976.743579	-1171.144652	137.214076	-139.386560	1789.370541	40.470314	12.612282	-15.589136	
5.7200	29.746155	27.492717	35.117194	-66.466123	792.664119	-37.007972	12.132904	34.684462	23.995132	45.000000	-45.000000	-2962.894203	-4967.073332	22.908315	180.000000	1085.794919	186.250962	13.310473	15.064101	-10.056186	-45.000000	-36.921553	45.000000	-45.000000	-976.640807	-1171.014488	137.202847	-139.370469	1789.379889	40.554081	12.643784	-15.674923	
5.7300	29.858991	27.292943	34.887409	-68.846228	794.484249	-37.237002	12.146405	34.650432	23.989384	45.000000	-45.000000	-2963.064712	-4966.987126	22.947030	180.000000	1085.767149	186.063252	13.327066	15.073820	-9.939446	-45.000000	-37.049565	45.000000	-45.000000	-976.544856	-1170.884888	137.195491	-139.352005	1789.387559	40.632193	12.676266	-15.757155	
5.7400	29.968330	27.096518	34.666296	-71.161018	796.337044	-37.458356	12.156723	34.621879	23.992196	45.000000	-45.000000	-2963.236922	-4966.903583	22.985695	180.000000	1085.740925	185.871667	13.342960	15.078257	-9.823269	-45.000000	-37.179618	45.000000	-45.000000	-976.449886	-1170.756728	137.187717	-139.321598	1789.393822	40.700342	12.713132	-15.839188	
5.7500	30.077379	26.899562	34.449916	-73.413158	798.217211	-37.671837	12.158556	34.598010	24.009490	45.000000	-45.000000	-2963.412567	-4966.823190	23.024111	180.000000	1085.713616	185.677541	13.359450	15.081851	-9.704760	-45.000000	-37.310551	45.000000	-45.000000	-976.348698	-1170.632151	137.173314	-139.278220	1789.399930	40.754006	12.757083	-15.922913	
5.7600	30.187442	26.703753	34.236719	-75.605772	800.119482	-37.877256	12.152076	34.581059	24.039276	45.000000	-45.000000	-2963.591811	-4966.749776	23.061930	180.000000	1085.686983	185.479961	13.376131	15.084086	-9.590459	-45.000000	-37.438513	45.000000	-45.000000	-976.247853	-1170.508341	137.154915	-139.223808	1789.402584	40.789261	12.807425	-16.005809	
5.7700	30.295807	26.508311	34.028305	-77.740854	802.038216	-38.074252	12.136612	34.566955	24.075413	45.000000	-45.000000	-2963.771342	-4966.678385	23.101156	180.000000	1085.658185	185.275770	13.393497	15.085901	-9.471497	-45.000000	-37.565176	45.000000	-45.000000	-976.142958	-1170.386516	137.131586	-139.162481	1789.401132	40.802994	12.864637	-16.087030	
5.7800	30.406760	26.312198	33.824367	-79.819500	803.968375	-38.262337	12.114559	34.560288	24.124479	45.000000	-45.000000	-2963.954187	-4966.613550	23.141383	180.000000	1085.631490	185.061284	13.410613	15.087510	-9.363350	-45.000000	-37.684581	45.000000	-45.000000	-976.038810	-1170.266664	137.108759	-139.095133	1789.396208	40.792114	12.928464	-16.167427	
5.7900	30.514686	26.120206	33.626416	-81.840948	805.904950	-38.440870	12.089601	34.550631	24.170296	45.000000	-45.000000	-2964.133555	-4966.548280	23.182665	180.000000	1085.601018	184.830292	13.428305	15.088980	-9.248607	-45.000000	-37.804052	45.000000	-45.000000	-975.933781	-1170.148695	137.084578	-139.024259	1789.386439	40.755629	12.997394	-16.244165	
5.8000	30.619628	25.935064	33.437210	-83.803432	807.843662	-38.609261	12.067923	34.539695	24.212043	45.000000	-45.000000	-2964.308632	-4966.483987	23.223269	180.000000	1085.571803	184.576527	13.444611	15.088172	-9.141004	-45.000000	-37.922173	45.000000	-45.000000	-975.837922	-1170.032919	137.066286	-138.954057	1789.373222	40.692796	13.068857	-16.316835	
